<svg width="1280" height="720" xmlns="http://www.w3.org/2000/svg" xmlns:xlink="http://www.w3.org/1999/xlink" overflow="hidden"><defs><clipPath id="clip0"><rect x="0" y="0" width="1280" height="720"/></clipPath><clipPath id="clip1"><rect x="1138" y="183" width="123" height="124"/></clipPath><clipPath id="clip2"><rect x="1138" y="183" width="123" height="124"/></clipPath><clipPath id="clip3"><rect x="1138" y="183" width="123" height="124"/></clipPath></defs><g clip-path="url(#clip0)"><rect x="0" y="0" width="1280" height="720" fill="#FFFFFF"/><text fill="#FFFFFF" font-family="CMU Serif,CMU Serif_MSFontService,sans-serif" font-weight="500" font-size="28" transform="translate(1245.14 703)">13</text><rect x="346" y="247" width="312" height="56" fill="#92D050" fill-opacity="0.501961"/><text font-family="CMU Serif,CMU Serif_MSFontService,sans-serif" font-weight="500" font-size="27" transform="translate(385.133 282)">Random<tspan font-size="27" x="107.167" y="0">Forest (</tspan><tspan font-weight="700" font-size="27" x="200.167" y="0">1</tspan><tspan font-size="27" x="215.333" y="0">°</tspan><tspan font-size="27" x="224.167" y="0">)</tspan></text><rect x="346" y="317" width="312" height="56" fill="#33CCFF" fill-opacity="0.501961"/><text font-family="CMU Serif,CMU Serif_MSFontService,sans-serif" font-weight="500" font-size="27" transform="translate(447.967 350)">KNN <tspan font-size="27" x="66.8333" y="0">(</tspan><tspan font-weight="700" font-size="27" x="76.5" y="0">2</tspan>°<tspan font-size="27" x="99.1666" y="0">)</tspan></text><rect x="346" y="387" width="312" height="56" fill="#92D050" fill-opacity="0.501961"/><text font-family="CMU Serif,CMU Serif_MSFontService,sans-serif" font-weight="500" font-size="27" transform="translate(390.55 422)">Decision<tspan font-size="27" x="106.167" y="0">Trees</tspan><tspan font-size="27" x="178.833" y="0">(</tspan><tspan font-weight="700" font-size="27" x="189.167" y="0">3</tspan><tspan font-size="27" x="204.5" y="0">°</tspan><tspan font-size="27" x="213.333" y="0">)</tspan></text><rect x="346" y="457" width="312" height="56" fill="#33CCFF" fill-opacity="0.501961"/><text font-family="CMU Serif,CMU Serif_MSFontService,sans-serif" font-weight="500" font-size="27" transform="translate(417.55 492)">XG <tspan font-size="27" x="49.6667" y="0">Boost</tspan><tspan font-size="27" x="124.833" y="0">(</tspan><tspan font-weight="700" font-size="27" x="135.167" y="0">4</tspan><tspan font-size="27" x="150.5" y="0">°</tspan><tspan font-size="27" x="159.333" y="0">)</tspan></text><rect x="31" y="350" width="210" height="56" fill="#FFC000" fill-opacity="0.501961"/><text font-family="CMU Serif,CMU Serif_MSFontService,sans-serif" font-weight="700" font-size="27" transform="translate(97.3344 384)">Datos</text><rect x="762" y="355" width="228" height="63" fill="#92D050" fill-opacity="0.501961"/><text font-family="CMU Serif,CMU Serif_MSFontService,sans-serif" font-weight="500" font-size="27" transform="translate(800.035 394)">Combinación</text><path d="M0-1.33333 53.7686-1.33333 53.7686 103.422 52.4353 102.089 98.2039 102.089 98.2039 104.756 51.1019 104.756 51.1019 0 52.4353 1.33333 0 1.33333ZM96.8705 96.7557 104.871 103.422 96.8705 110.089Z" fill="#3F6EC3" fill-opacity="0.839216" transform="matrix(1 0 0 -1 241.5 378.922)"/><path d="M0-1.33333 53.7686-1.33333 53.7686 33.4127 52.4353 32.0794 98.2039 32.0794 98.2039 34.746 51.1019 34.746 51.1019 0 52.4353 1.33333 0 1.33333ZM96.8705 26.746 104.871 33.4127 96.8705 40.0794Z" fill="#3F6EC3" fill-opacity="0.839216" transform="matrix(1 0 0 -1 241.5 378.913)"/><path d="M241.5 377.167 295.269 377.167 295.269 415.097 293.935 413.764 339.704 413.764 339.704 416.43 292.602 416.43 292.602 378.5 293.935 379.833 241.5 379.833ZM338.371 408.43 346.371 415.097 338.371 421.764Z" fill="#3F6EC3" fill-opacity="0.839216"/><path d="M241.5 377.167 295.269 377.167 295.269 485.106 293.935 483.773 339.704 483.773 339.704 486.44 292.602 486.44 292.602 378.5 293.935 379.833 241.5 379.833ZM338.371 478.44 346.371 485.106 338.371 491.773Z" fill="#3F6EC3" fill-opacity="0.839216"/><path d="M658.5 274.167 711.666 274.167 711.666 387.423 710.332 386.09 755.498 386.09 755.498 388.757 708.999 388.757 708.999 275.5 710.332 276.833 658.5 276.833ZM754.165 380.757 762.165 387.423 754.165 394.09Z" fill="#3F6EC3" fill-opacity="0.839216"/><path d="M658.5 344.167 711.666 344.167 711.666 387.414 710.332 386.08 755.498 386.08 755.498 388.747 708.999 388.747 708.999 345.5 710.332 346.833 658.5 346.833ZM754.165 380.747 762.165 387.414 754.165 394.08Z" fill="#3F6EC3" fill-opacity="0.839216"/><path d="M0-1.33333 53.1656-1.33333 53.1656 28.0957 51.8323 26.7624 96.9979 26.7624 96.9979 29.4291 50.4989 29.4291 50.4989 0 51.8323 1.33333 0 1.33333ZM95.6646 21.4291 103.665 28.0957 95.6646 34.7624Z" fill="#3F6EC3" fill-opacity="0.839216" transform="matrix(1 0 0 -1 658.5 415.596)"/><path d="M0-1.33333 53.1656-1.33333 53.1656 98.1053 51.8323 96.772 96.9979 96.772 96.9979 99.4386 50.4989 99.4386 50.4989 0 51.8323 1.33333 0 1.33333ZM95.6646 91.4386 103.665 98.1053 95.6646 104.772Z" fill="#3F6EC3" fill-opacity="0.839216" transform="matrix(1 0 0 -1 658.5 485.605)"/><rect x="1036" y="355" width="187" height="65" fill="#ED7D31" fill-opacity="0.501961"/><text font-family="CMU Serif,CMU Serif_MSFontService,sans-serif" font-weight="700" font-size="27" transform="translate(1072.26 378)">Etiqueta <tspan font-size="27" x="28.0801" y="32">final</tspan></text><path d="M990.531 386 1028.58 386.79 1028.52 389.79 990.469 389ZM1027.2 380.76 1036.05 388.446 1026.89 395.757Z" fill="#4472C4"/><g clip-path="url(#clip1)"><g clip-path="url(#clip2)"><g clip-path="url(#clip3)"><path d="M100.194 61.3719C99.8094 61.3719 99.2969 61.3719 98.9125 61.3719 98.9125 61.3719 98.9125 61.3719 98.9125 61.3719 98.9125 55.0938 95.8375 49.3281 90.8406 45.7406 85.7156 42.1531 79.1813 41.2563 73.2875 43.3062 68.4188 33.825 57.6562 28.9563 47.4062 31.3906 37.1562 33.825 29.725 43.05 29.725 53.6844 29.725 53.6844 29.725 53.8125 29.725 53.9406 22.6781 52.7875 15.6312 55.7344 11.275 61.3719 7.04688 67.1375 6.27813 74.6969 9.225 81.1031 12.3 87.5094 18.7063 91.7375 25.7531 92.1219L25.7531 92.25 100.066 92.25C108.522 92.25 115.441 85.3312 115.441 76.875 115.441 68.4188 108.65 61.3719 100.194 61.3719Z" stroke="#000000" stroke-width="1.28125" fill="#A5A5A5" fill-opacity="0.25" transform="matrix(1 0 0 1.00813 1138 183)"/></g></g></g><text font-family="CMU Serif,CMU Serif_MSFontService,sans-serif" font-weight="500" font-size="27" transform="translate(998.469 225)">Procesamiento <tspan font-size="27" x="0" y="32">en la nube</tspan></text><rect x="21.5001" y="172.5" width="1238" height="444" stroke="#000000" stroke-width="3" stroke-miterlimit="8" stroke-dasharray="3 3" stroke-opacity="0.639216" fill="none"/><text font-family="CMU Serif,CMU Serif_MSFontService,sans-serif" font-weight="500" font-size="25" transform="translate(810.241 450)">Ponderación <tspan font-size="25" x="-35.3333" y="30">etiquetas mediante </tspan><tspan font-style="italic" font-size="25" x="5.16669" y="60">Soft</tspan><tspan font-style="italic" font-size="25" x="56.6667" y="60">Voting</tspan></text><rect x="36.5001" y="183.5" width="148" height="104" stroke="#2F528F" stroke-width="1.33333" stroke-miterlimit="8" fill="#ED7D31"/><text fill="#FFFFFF" font-family="CMU Serif,CMU Serif_MSFontService,sans-serif" font-weight="500" font-size="28" transform="translate(62.7935 208)">Módulo <tspan font-size="28" x="32.6667" y="35">de</tspan><tspan font-size="28" x="-10.5867" y="69">detección</tspan></text><rect x="352" y="531" width="306" height="56" fill="#33CCFF" fill-opacity="0.501961"/><text font-family="CMU Serif,CMU Serif_MSFontService,sans-serif" font-weight="500" font-size="27" transform="translate(416.508 566)">Ada <tspan font-size="27" x="57.1667" y="0">Boost</tspan><tspan font-size="27" x="132.333" y="0">(</tspan><tspan font-weight="700" font-size="27" x="142.667" y="0">5</tspan><tspan font-size="27" x="158" y="0">°</tspan><tspan font-size="27" x="166.833" y="0">)</tspan></text><path d="M241.5 377.167 294.211 377.167 294.211 559.306 292.878 557.973 345.119 557.973 345.119 560.639 291.544 560.639 291.544 378.5 292.878 379.833 241.5 379.833ZM343.786 552.639 351.786 559.306 343.786 565.973Z" fill="#3F6EC3" fill-opacity="0.839216"/><path d="M0-1.33333 53.1656-1.33333 53.1656 172.305 51.8322 170.971 96.9978 170.971 96.9978 173.638 50.4989 173.638 50.4989 0 51.8322 1.33333 0 1.33333ZM95.6645 165.638 103.664 172.305 95.6645 178.971Z" fill="#3F6EC3" fill-opacity="0.839216" transform="matrix(1 0 0 -1 658.5 559.805)"/><text font-family="CMU Serif,CMU Serif_MSFontService,sans-serif" font-weight="700" font-size="39" transform="translate(511.223 220)">Combinación</text></g></svg>