<?xml version="1.0" encoding="UTF-8" standalone="no"?>
<svg
   width="1280"
   height="720"
   overflow="hidden"
   version="1.1"
   id="svg65706"
   sodipodi:docname="esquema_apilamiento.svg"
   inkscape:version="1.1.1 (3bf5ae0d25, 2021-09-20)"
   xmlns:inkscape="http://www.inkscape.org/namespaces/inkscape"
   xmlns:sodipodi="http://sodipodi.sourceforge.net/DTD/sodipodi-0.dtd"
   xmlns="http://www.w3.org/2000/svg"
   xmlns:svg="http://www.w3.org/2000/svg">
  <sodipodi:namedview
     id="namedview65708"
     pagecolor="#ffffff"
     bordercolor="#666666"
     borderopacity="1.0"
     inkscape:pageshadow="2"
     inkscape:pageopacity="0.0"
     inkscape:pagecheckerboard="0"
     showgrid="false"
     inkscape:zoom="2.5058097"
     inkscape:cx="520.98929"
     inkscape:cy="360.16303"
     inkscape:window-width="1920"
     inkscape:window-height="1009"
     inkscape:window-x="1912"
     inkscape:window-y="-8"
     inkscape:window-maximized="1"
     inkscape:current-layer="g65704" />
  <defs
     id="defs65618">
    <rect
       x="1156.9665"
       y="644.51499"
       width="164.79718"
       height="94.814815"
       id="rect96737" />
    <clipPath
       id="clip0">
      <rect
         x="0"
         y="0"
         width="1280"
         height="720"
         id="rect65597" />
    </clipPath>
    <clipPath
       id="clip1">
      <rect
         x="850"
         y="334"
         width="68"
         height="68"
         id="rect65600" />
    </clipPath>
    <clipPath
       id="clip2">
      <rect
         x="850"
         y="334"
         width="68"
         height="68"
         id="rect65603" />
    </clipPath>
    <clipPath
       id="clip3">
      <rect
         x="850"
         y="334"
         width="68"
         height="68"
         id="rect65606" />
    </clipPath>
    <clipPath
       id="clip4">
      <rect
         x="252"
         y="336"
         width="78"
         height="78"
         id="rect65609" />
    </clipPath>
    <clipPath
       id="clip5">
      <rect
         x="252"
         y="336"
         width="78"
         height="78"
         id="rect65612" />
    </clipPath>
    <clipPath
       id="clip6">
      <rect
         x="252"
         y="336"
         width="78"
         height="78"
         id="rect65615" />
    </clipPath>
  </defs>
  <g
     clip-path="url(#clip0)"
     id="g65704">
    <rect
       x="0"
       y="0"
       width="1280"
       height="720"
       fill="#FFFFFF"
       id="rect65620" />
    <text
       fill="#898989"
       font-family="Calibri, Calibri_MSFontService, sans-serif"
       font-weight="400"
       font-size="16px"
       transform="translate(1174.1,692)"
       id="text65628"
       style="font-weight:bold;font-size:27px;font-family:'Times New Roman', 'Times New Roman_MSFontService', sans-serif;fill:#898989;-inkscape-font-specification:'Times New Roman, Times New Roman_MSFontService, sans-serif, Bold';font-style:normal;font-stretch:normal;font-variant:normal;font-variant-ligatures:normal;font-variant-caps:normal;font-variant-numeric:normal;font-variant-east-asian:normal"><tspan
         sodipodi:role="line"
         id="tspan85663">Series de tiempo</tspan><tspan
         sodipodi:role="line"
         id="tspan85665">hidrogeológicas</tspan></text>
    <path
       d="M0.0371385-4.66652 58.1572-4.20397 58.0829 5.12907-0.0371385 4.66652ZM53.5278-8.90763 72.1196 0.573963 53.3792 9.75845Z"
       fill="#4472C4"
       transform="matrix(1 0 0 -1 361.5 421.074)"
       id="path65630" />
    <path
       d="M238.5 416.25 339 416.25 339 410.5 350.5 422 339 433.5 339 427.75 238.5 427.75Z"
       stroke="#2F528F"
       stroke-width="1.33333"
       stroke-miterlimit="8"
       fill="#4472C4"
       fill-rule="evenodd"
       id="path65632" />
    <path
       d="M433 394.919C433 392.202 435.202 390 437.919 390L573.081 390C575.798 390 578 392.202 578 394.919L578 445.081C578 447.798 575.798 450 573.081 450L437.919 450C435.202 450 433 447.798 433 445.081Z"
       stroke="#C00000"
       stroke-width="4"
       stroke-miterlimit="8"
       fill="none"
       fill-rule="evenodd"
       id="path65634" />
    <text
       font-family="Times New Roman,Times New Roman_MSFontService,sans-serif"
       font-weight="700"
       font-size="27"
       transform="translate(452.868 430)"
       id="text65636">Modelo 2</text>
    <path
       d="M0.038695-4.66651 37.342-4.35718 37.2646 4.97583-0.038695 4.66651ZM32.7141-9.06239 51.3028 0.425407 32.5594 9.60364Z"
       fill="#4472C4"
       transform="matrix(1 0 0 -1 382.5 338.925)"
       id="path65638" />
    <path
       d="M433 313.001C433 310.239 435.239 308 438.001 308L572.999 308C575.761 308 578 310.239 578 313.001L578 363.999C578 366.761 575.761 369 572.999 369L438.001 369C435.239 369 433 366.761 433 363.999Z"
       stroke="#C00000"
       stroke-width="4"
       stroke-miterlimit="8"
       fill="none"
       fill-rule="evenodd"
       id="path65640" />
    <text
       font-family="Times New Roman,Times New Roman_MSFontService,sans-serif"
       font-weight="700"
       font-size="27"
       transform="translate(452.868 348)"
       id="text65642">Modelo 1</text>
    <path
       d="M391.5 496.833 419.701 496.833 419.701 506.167 391.5 506.167ZM415.034 492.167 433.701 501.5 415.034 510.833Z"
       fill="#4472C4"
       id="path65644" />
    <path
       d="M433 476.001C433 473.239 435.239 471 438.001 471L572.999 471C575.761 471 578 473.239 578 476.001L578 526.999C578 529.761 575.761 532 572.999 532L438.001 532C435.239 532 433 529.761 433 526.999Z"
       stroke="#C00000"
       stroke-width="4"
       stroke-miterlimit="8"
       fill="none"
       fill-rule="evenodd"
       id="path65646" />
    <text
       font-family="Times New Roman,Times New Roman_MSFontService,sans-serif"
       font-weight="700"
       font-size="27"
       transform="translate(452.868 511)"
       id="text65648"
       style="-inkscape-font-specification:'Times New Roman, Times New Roman_MSFontService, sans-serif, Bold';font-family:'Times New Roman', 'Times New Roman_MSFontService', sans-serif;font-weight:bold;font-style:normal;font-stretch:normal;font-variant:normal;font-size:27px;font-variant-ligatures:normal;font-variant-caps:normal;font-variant-numeric:normal;font-variant-east-asian:normal">Modelo 3</text>
    <path
       d="M387.5 337.5 387.5 506.678"
       stroke="#4472C4"
       stroke-width="9.33333"
       stroke-miterlimit="8"
       fill="none"
       fill-rule="evenodd"
       id="path65650" />
    <path
       d="M833.5 417.75 935 417.75 935 412.5 945.5 423 935 433.5 935 428.25 833.5 428.25Z"
       stroke="#CC3300"
       stroke-width="1.33333"
       stroke-miterlimit="8"
       fill="#CC3300"
       fill-rule="evenodd"
       id="path65652" />
    <path
       d="M361.5 313.487C361.5 301.896 370.896 292.5 382.487 292.5L808.513 292.5C820.104 292.5 829.5 301.896 829.5 313.487L829.5 527.513C829.5 539.104 820.104 548.5 808.513 548.5L382.487 548.5C370.896 548.5 361.5 539.104 361.5 527.513Z"
       stroke="#2F528F"
       stroke-width="5.33333"
       stroke-miterlimit="8"
       fill="none"
       fill-rule="evenodd"
       id="path65654" />
    <text
       font-family="'Times New Roman', 'Times New Roman_MSFontService', sans-serif"
       font-weight="700"
       font-size="27px"
       transform="translate(972.062,417)"
       id="text65658"
       style="font-weight:700;font-size:27px;font-family:'Times New Roman', 'Times New Roman_MSFontService', sans-serif"><tspan
         sodipodi:role="line"
         id="tspan104782"
         x="0"
         y="0"><tspan
           style="font-style:normal;font-variant:normal;font-weight:bold;font-stretch:normal;font-size:27px;font-family:'CMU Serif';-inkscape-font-specification:'CMU Serif, Bold';font-variant-ligatures:normal;font-variant-caps:normal;font-variant-numeric:normal;font-variant-east-asian:normal"
           id="tspan100663">Etiquetas</tspan></tspan><tspan
         sodipodi:role="line"
         id="tspan104784"
         x="0"
         y="34.869602"><tspan
           style="font-style:normal;font-variant:normal;font-weight:bold;font-stretch:normal;font-size:27px;font-family:'CMU Serif';-inkscape-font-specification:'CMU Serif, Bold';font-variant-ligatures:normal;font-variant-caps:normal;font-variant-numeric:normal;font-variant-east-asian:normal"
           id="tspan104786">anomalías</tspan></tspan></text>
    <g
       clip-path="url(#clip1)"
       id="g65678">
      <g
         clip-path="url(#clip2)"
         id="g65676">
        <g
           clip-path="url(#clip3)"
           id="g65674">
          <path
             d="M890.221 361.698 891.631 361.553 893.302 377.845 891.893 377.989Z"
             id="path65660" />
          <path
             d="M908.083 387.125 903.833 387.125 903.833 383.583 898.101 383.583 895.6 357.877C895.497 356.787 894.58 355.955 893.485 355.958L874.602 355.958C873.509 355.955 872.594 356.784 872.487 357.871L869.904 383.583 864.167 383.583 864.167 387.125 859.917 387.125 859.917 392.083 908.083 392.083ZM873.897 358.013C873.933 357.651 874.238 357.375 874.602 357.375L893.485 357.375C893.85 357.373 894.156 357.649 894.193 358.013L896.679 383.583 871.324 383.583ZM906.667 390.667 861.333 390.667 861.333 388.542 865.583 388.542 865.583 385 902.417 385 902.417 388.542 906.667 388.542Z"
             id="path65662" />
          <path
             d="M883.292 343.917 884.708 343.917 884.708 352.417 883.292 352.417Z"
             id="path65664" />
          <path
             d="M859.917 364.458 867 364.458 867 365.875 859.917 365.875Z"
             id="path65666" />
          <path
             d="M901 364.458 908.083 364.458 908.083 365.875 901 365.875Z"
             id="path65668" />
          <path
             d="M863.666 348.667 864.668 347.666 870.334 353.333 869.333 354.334Z"
             id="path65670" />
          <path
             d="M897.666 353.332 903.333 347.666 904.334 348.667 898.668 354.334Z"
             id="path65672" />
        </g>
      </g>
    </g>
    <g
       clip-path="url(#clip4)"
       id="g65688">
      <g
         clip-path="url(#clip5)"
         id="g65686">
        <g
           clip-path="url(#clip6)"
           id="g65684">
          <path
             d="M265.024 348.188 263.399 348.188 263.399 403.438 318.625 403.438 318.625 401.812 265.024 401.812 265.024 348.188Z"
             id="path65680" />
          <path
             d="M275.587 394.5C277.376 394.504 278.83 393.056 278.834 391.266 278.836 390.244 278.355 389.28 277.537 388.667L284.589 366.868C285.058 366.857 285.518 366.745 285.938 366.538L298.394 376.029C298.059 377.792 299.218 379.493 300.982 379.827 302.745 380.161 304.446 379.003 304.78 377.239 304.818 377.037 304.837 376.831 304.837 376.625 304.834 375.638 304.38 374.705 303.604 374.095L309.486 357.102C309.562 357.108 309.635 357.125 309.712 357.125 311.513 357.131 312.978 355.676 312.985 353.875 312.991 352.074 311.536 350.609 309.735 350.602 307.933 350.596 306.468 352.051 306.462 353.852 306.458 354.958 307.015 355.991 307.941 356.595L302.115 373.428C301.941 373.396 301.764 373.378 301.587 373.375 300.633 373.378 299.729 373.802 299.118 374.534L287.206 365.459C288.23 363.981 287.862 361.953 286.384 360.928 284.906 359.904 282.878 360.272 281.854 361.75 280.829 363.228 281.197 365.257 282.675 366.281 282.782 366.355 282.894 366.423 283.009 366.483L276.033 388.045C274.259 387.795 272.619 389.03 272.369 390.804 272.119 392.578 273.355 394.219 275.128 394.468 275.28 394.49 275.434 394.5 275.587 394.5Z"
             id="path65682" />
        </g>
      </g>
    </g>
    <path
       d="M578.5 415.833 657.651 415.833 657.651 425.167 578.5 425.167ZM652.984 411.167 671.651 420.5 652.984 429.833Z"
       fill="#CC3300"
       id="path65690" />
    <path
       d="M578.5 338.5 640.184 338.5"
       stroke="#CC3300"
       stroke-width="9.33333"
       stroke-linejoin="round"
       stroke-miterlimit="10"
       fill="none"
       fill-rule="evenodd"
       id="path65692" />
    <path
       d="M578.5 501.5 644.717 501.5"
       stroke="#CC3300"
       stroke-width="9.33333"
       stroke-linejoin="round"
       stroke-miterlimit="10"
       fill="none"
       fill-rule="evenodd"
       id="path65694" />
    <path
       d="M640.5 334.5 640.5 499.165"
       stroke="#CC3300"
       stroke-width="9.33333"
       stroke-linejoin="round"
       stroke-miterlimit="10"
       fill="none"
       fill-rule="evenodd"
       id="path65696" />
    <path
       d="M673 391.247C673 388.349 675.349 386 678.247 386L812.753 386C815.651 386 818 388.349 818 391.247L818 444.753C818 447.651 815.651 450 812.753 450L678.247 450C675.349 450 673 447.651 673 444.753Z"
       stroke="#C00000"
       stroke-width="4"
       stroke-miterlimit="8"
       fill="none"
       fill-rule="evenodd"
       id="path65698" />
    <text
       font-family="'Times New Roman', 'Times New Roman_MSFontService', sans-serif"
       font-weight="700"
       font-size="27px"
       transform="translate(715.967,412)"
       id="text65702"
       style="font-weight:700;font-size:27px;font-family:'Times New Roman', 'Times New Roman_MSFontService', sans-serif"><tspan
         sodipodi:role="line"
         id="tspan110349"
         x="0"
         y="0"><tspan
           style="font-style:normal;font-variant:normal;font-weight:bold;font-stretch:normal;font-size:27px;font-family:'CMU Serif';-inkscape-font-specification:'CMU Serif, Bold';font-variant-ligatures:normal;font-variant-caps:normal;font-variant-numeric:normal;font-variant-east-asian:normal"
           id="tspan108828">Meta</tspan></tspan><tspan
         sodipodi:role="line"
         id="tspan110351"
         x="0"
         y="34.869602"><tspan
           style="font-style:normal;font-variant:normal;font-weight:bold;font-stretch:normal;font-size:27px;font-family:'CMU Serif';-inkscape-font-specification:'CMU Serif, Bold';font-variant-ligatures:normal;font-variant-caps:normal;font-variant-numeric:normal;font-variant-east-asian:normal"
           id="tspan110353">modelo</tspan></tspan></text>
  </g>
</svg>
